<svg width="33" height="32" viewBox="0 0 33 32" fill="none" xmlns="http://www.w3.org/2000/svg">
<path d="M29.2009 17.5999C28.8447 20.4198 27.5607 23.041 25.5509 25.0508C23.5411 27.0605 20.9199 28.3446 18.1 28.7007V32H14.9V28.7007C12.0802 28.3446 9.45896 27.0605 7.44919 25.0508C5.43943 23.041 4.15535 20.4198 3.79921 17.5999H0.5V14.3999H3.79921C4.15535 11.5801 5.43943 8.95884 7.44919 6.94907C9.45896 4.93931 12.0802 3.65522 14.9 3.29909V-0.00012207H18.1V3.29909C20.9199 3.65522 23.5411 4.93931 25.5509 6.94907C27.5607 8.95884 28.8447 11.5801 29.2009 14.3999H32.5001V17.5999H29.2009ZM16.5 25.5999C19.0461 25.5999 21.4879 24.5885 23.2883 22.7882C25.0886 20.9878 26.1001 18.546 26.1001 15.9999C26.1001 13.4538 25.0886 11.012 23.2883 9.21168C21.4879 7.41132 19.0461 6.39989 16.5 6.39989C13.954 6.39989 11.5122 7.41132 9.7118 9.21168C7.91144 11.012 6.90002 13.4538 6.90002 15.9999C6.90002 18.546 7.91144 20.9878 9.7118 22.7882C11.5122 24.5885 13.954 25.5999 16.5 25.5999ZM16.5 20.7999C17.7731 20.7999 18.994 20.2942 19.8942 19.394C20.7943 18.4939 21.3001 17.273 21.3001 15.9999C21.3001 14.7269 20.7943 13.506 19.8942 12.6058C18.994 11.7056 17.7731 11.1999 16.5 11.1999C15.227 11.1999 14.0061 11.7056 13.1059 12.6058C12.2057 13.506 11.7 14.7269 11.7 15.9999C11.7 17.273 12.2057 18.4939 13.1059 19.394C14.0061 20.2942 15.227 20.7999 16.5 20.7999Z" fill="#49FFC8"/>
</svg>
