<svg width="33" height="30" viewBox="0 0 33 30" fill="none" xmlns="http://www.w3.org/2000/svg">
<path d="M7.77217 0.601685L25.6794 18.509L28.8696 15.3188L30.9914 17.4405L27.2745 21.1574L32.0599 25.9427C32.6467 26.5296 32.6467 27.4776 32.0599 28.0645L30.9914 29.1329C30.8522 29.2724 30.6869 29.3831 30.5048 29.4586C30.3228 29.5341 30.1276 29.573 29.9305 29.573C29.7335 29.573 29.5383 29.5341 29.3563 29.4586C29.1742 29.3831 29.0089 29.2724 28.8696 29.1329L24.0242 24.3627L20.3524 28.0796L18.2306 25.9578L21.4208 22.7676L3.51355 4.86031V0.601685H7.77217ZM22.3538 11.9781L29.4866 4.84526V0.601685H25.228L18.0952 7.7345L22.3538 11.9781ZM14.905 19.5021L10.6464 15.1833L7.32073 18.509L4.13052 15.3188L2.00873 17.4405L5.72562 21.1574L0.940318 25.9578C0.800816 26.097 0.690141 26.2624 0.614627 26.4444C0.539113 26.6265 0.500244 26.8216 0.500244 27.0187C0.500244 27.2158 0.539113 27.4109 0.614627 27.593C0.690141 27.775 0.800816 27.9404 0.940318 28.0796L2.00873 29.148C2.59561 29.7349 3.54364 29.7349 4.13052 29.148L8.97602 24.3627L12.6478 28.0796L14.7696 25.9578L11.5793 22.7676L14.905 19.5021Z" fill="#49FFC8"/>
</svg>
