<svg width="39" height="32" viewBox="0 0 39 32" fill="none" xmlns="http://www.w3.org/2000/svg">
<path d="M35.8234 31.5854C34.0755 32.4878 31.7448 31.8862 30.5795 30.0813L27.3749 25.8699H11.6433L8.43867 30.0813C6.98203 32.187 4.36009 32.4878 2.3208 30.9838C0.864159 29.7805 0.281505 27.9756 0.572832 26.4716L2.61212 15.3415C3.19478 11.7317 6.39938 9.0244 9.8953 9.0244H18.0525V4.5122C18.0525 2.10569 19.8004 0 22.131 0H31.1622C32.0362 0 32.6188 0.601626 32.6188 1.50407C32.6188 2.40651 32.0362 3.00813 31.1622 3.00813H22.4224C21.5484 3.00813 20.9657 3.60976 20.9657 4.21139V9.0244H29.1229C32.6188 9.0244 35.8234 11.7317 36.4061 15.3415L38.4454 26.4716C38.7367 28.5773 37.8627 30.683 35.8234 31.5854ZM15.1392 16.5447C15.1392 14.1382 13.0999 12.0325 10.7693 12.0325C8.43867 12.0325 6.39938 14.1382 6.39938 16.5447C6.39938 18.9512 8.43867 21.0569 10.7693 21.0569C13.0999 21.0569 15.1392 18.9512 15.1392 16.5447ZM32.6188 16.5447C32.6188 15.6423 32.0362 15.0407 31.1622 15.0407H29.7056V13.5366C29.7056 12.6342 29.1229 12.0325 28.2489 12.0325C27.3749 12.0325 26.7923 12.6342 26.7923 13.5366V15.0407H25.3356C24.4617 15.0407 23.879 15.6423 23.879 16.5447C23.879 17.4472 24.4617 18.0488 25.3356 18.0488H26.7923V19.5529C26.7923 20.4553 27.3749 21.0569 28.2489 21.0569C29.1229 21.0569 29.7056 20.4553 29.7056 19.5529V18.0488H31.1622C32.0362 18.0488 32.6188 17.4472 32.6188 16.5447Z" fill="#49FFC8"/>
</svg>
