<svg width="187" height="21" viewBox="0 0 187 21" fill="none" xmlns="http://www.w3.org/2000/svg">
<path d="M22.8049 19.7486C21.6764 20.3128 20.1718 19.9367 19.4194 18.8082L17.3505 16.175H7.19413L5.12523 18.8082C4.18482 20.1247 2.49208 20.3128 1.17551 19.3724C0.235102 18.6201 -0.141061 17.4916 0.0470204 16.5512L1.36359 9.59217C1.73976 7.33519 3.80866 5.64245 6.06564 5.64245H11.3319V2.82123C11.3319 1.31657 12.4604 0 13.9651 0H19.7956C20.3598 0 20.736 0.376163 20.736 0.940409C20.736 1.50465 20.3598 1.88082 19.7956 1.88082H14.1532C13.5889 1.88082 13.2127 2.25698 13.2127 2.63314V5.64245H18.479C20.736 5.64245 22.8049 7.33519 23.1811 9.59217L24.4976 16.5512C24.6857 17.8678 24.1215 19.1843 22.8049 19.7486ZM9.45111 10.3445C9.45111 8.83984 8.13454 7.52327 6.62988 7.52327C5.12523 7.52327 3.80866 8.83984 3.80866 10.3445C3.80866 11.8491 5.12523 13.1657 6.62988 13.1657C8.13454 13.1657 9.45111 11.8491 9.45111 10.3445ZM20.736 10.3445C20.736 9.78025 20.3598 9.40409 19.7956 9.40409H18.8552V8.46368C18.8552 7.89943 18.479 7.52327 17.9148 7.52327C17.3505 7.52327 16.9744 7.89943 16.9744 8.46368V9.40409H16.034C15.4697 9.40409 15.0936 9.78025 15.0936 10.3445C15.0936 10.9087 15.4697 11.2849 16.034 11.2849H16.9744V12.2253C16.9744 12.7896 17.3505 13.1657 17.9148 13.1657C18.479 13.1657 18.8552 12.7896 18.8552 12.2253V11.2849H19.7956C20.3598 11.2849 20.736 10.9087 20.736 10.3445Z" fill="#49FFC8"/>
<path d="M41.3078 19.2365C40.3915 19.2365 39.5816 19.1956 38.878 19.1137C38.1744 19.0319 37.479 18.8929 36.7918 18.6965C36.0555 18.5002 35.4501 18.2384 34.9756 17.9111C34.5011 17.5675 34.1166 17.1257 33.8221 16.5858C33.5275 16.0131 33.3803 15.3586 33.3803 14.6223V7.99558C33.3803 7.19383 33.5439 6.47389 33.8711 5.83576C34.1984 5.18127 34.6402 4.66586 35.1965 4.28953C35.7201 3.94592 36.3418 3.6514 37.0618 3.40597C37.7981 3.16053 38.518 2.99691 39.2216 2.9151C39.8106 2.84965 40.5224 2.81693 41.3569 2.81693C43.6149 2.81693 45.7747 2.98873 47.8363 3.33234V6.22846C45.9383 5.77031 43.7785 5.54124 41.3569 5.54124C38.5917 5.54124 37.2091 6.34299 37.2091 7.9465V14.3523C37.2091 15.1377 37.5772 15.694 38.3135 16.0213C39.0662 16.3485 40.1952 16.5121 41.7005 16.5121C42.5022 16.5121 43.3613 16.3894 44.2775 16.144V12.4379H41.6759V9.93451H47.9345V18.2056C47.1164 18.5002 46.0692 18.7456 44.793 18.9419C43.5331 19.1383 42.3713 19.2365 41.3078 19.2365Z" fill="#49FFC8"/>
<path d="M54.2441 19.2365C53.1315 19.2365 52.297 19.1383 51.7407 18.9419C51.2007 18.7292 50.8162 18.3611 50.5871 17.8375C50.3744 17.2975 50.2681 16.4958 50.2681 15.4322C50.2681 14.4832 50.3826 13.7387 50.6117 13.1988C50.8571 12.6588 51.2416 12.2743 51.7652 12.0452C52.3052 11.7998 53.0415 11.6771 53.9741 11.6771H57.9992V10.8672C57.9992 10.3599 57.9256 9.9836 57.7783 9.73816C57.6474 9.49273 57.3938 9.32093 57.0175 9.22275C56.6575 9.12458 56.1094 9.07549 55.3731 9.07549C54.3586 9.07549 52.9678 9.17367 51.2007 9.37001V7.11202C52.4933 6.9484 54.0068 6.86659 55.7412 6.86659C57.2629 6.86659 58.4328 6.98112 59.2509 7.21019C60.0854 7.43927 60.6826 7.83196 61.0426 8.38828C61.4026 8.94459 61.5826 9.75453 61.5826 10.8181V18.991H58.0729V17.9111C57.7947 18.3856 57.4184 18.721 56.9439 18.9174C56.4694 19.1301 55.5694 19.2365 54.2441 19.2365ZM55.6431 17.003C56.363 17.003 56.8784 16.9785 57.1893 16.9294C57.4184 16.8967 57.5738 16.8476 57.6556 16.7821C57.7538 16.7167 57.8356 16.6103 57.9011 16.4631C57.9665 16.3485 57.9992 16.1767 57.9992 15.9476V13.6406H55.5449C54.9886 13.6406 54.5959 13.6815 54.3668 13.7633C54.1377 13.8287 53.9823 13.976 53.9005 14.2051C53.8187 14.4178 53.7778 14.8023 53.7778 15.3586C53.7778 15.8986 53.8187 16.2749 53.9005 16.4876C53.9823 16.7003 54.1377 16.8394 54.3668 16.9048C54.6122 16.9703 55.0377 17.003 55.6431 17.003Z" fill="#49FFC8"/>
<path d="M64.7352 7.11202H68.3186V8.56008C68.5476 7.43108 69.7175 6.86659 71.8283 6.86659C72.9409 6.86659 73.7836 7.01385 74.3563 7.30837C74.9289 7.58653 75.3134 8.02831 75.5098 8.63371C75.7061 8.01194 76.0825 7.56198 76.6388 7.28382C77.2115 7.00567 78.0705 6.86659 79.2158 6.86659C80.2467 6.86659 81.0402 6.9893 81.5966 7.23474C82.1529 7.46381 82.5374 7.82378 82.7501 8.31465C82.9792 8.80551 83.0937 9.46001 83.0937 10.2781V18.991H79.5104V10.769C79.5104 10.2454 79.4776 9.87724 79.4122 9.66453C79.3467 9.43546 79.1995 9.28002 78.9704 9.19821C78.7577 9.1164 78.3814 9.07549 77.8414 9.07549C77.1706 9.07549 76.6879 9.1164 76.3934 9.19821C76.1152 9.28002 75.927 9.43546 75.8289 9.66453C75.747 9.87724 75.7061 10.2454 75.7061 10.769V18.991H72.1228V10.769C72.1228 10.2454 72.0901 9.87724 72.0246 9.66453C71.9592 9.43546 71.8119 9.28002 71.5828 9.19821C71.3701 9.1164 70.9938 9.07549 70.4538 9.07549C69.783 9.07549 69.3003 9.1164 69.0058 9.19821C68.7276 9.28002 68.5395 9.43546 68.4413 9.66453C68.3595 9.87724 68.3186 10.2454 68.3186 10.769V18.991H64.7352V7.11202Z" fill="#49FFC8"/>
<path d="M92.1987 19.2365C87.9936 19.2365 85.8911 17.952 85.8911 15.3831V11.1126C85.8911 9.62363 86.3656 8.54372 87.3146 7.87287C88.28 7.20201 89.7608 6.86659 91.7569 6.86659C93.6386 6.86659 95.013 7.19383 95.8802 7.84832C96.7638 8.48645 97.2056 9.57454 97.2056 11.1126V14.0087H89.499V15.0886C89.499 15.7758 89.7444 16.2667 90.2353 16.5612C90.7261 16.8557 91.6097 17.003 92.8859 17.003C94.064 17.003 95.3894 16.8312 96.862 16.4876V18.7701C95.4057 19.081 93.8513 19.2365 92.1987 19.2365ZM93.794 11.9716V10.2536C93.794 9.86088 93.6304 9.56636 93.3032 9.37001C92.9923 9.17367 92.4605 9.07549 91.7079 9.07549C90.8407 9.07549 90.2598 9.17367 89.9653 9.37001C89.6544 9.58272 89.499 9.87724 89.499 10.2536V11.9716H93.794Z" fill="#49FFC8"/>
<path d="M110.902 19.2365C109.381 19.2365 107.499 19.0892 105.257 18.7947V15.874C108.039 16.2994 109.937 16.5121 110.951 16.5121C113.079 16.5121 114.142 15.964 114.142 14.8677V13.8369C114.142 13.3133 113.987 12.9124 113.676 12.6343C113.381 12.3561 112.841 12.217 112.056 12.217H110.191C106.689 12.217 104.938 10.8263 104.938 8.04467V6.86659C104.938 5.47579 105.519 4.45315 106.681 3.79866C107.843 3.14417 109.683 2.81693 112.203 2.81693C113.512 2.81693 115.173 2.92328 117.185 3.13599V5.98302C114.715 5.6885 113.013 5.54124 112.08 5.54124C110.788 5.54124 109.921 5.6476 109.479 5.86031C109.004 6.08938 108.767 6.44935 108.767 6.94022V8.06921C108.767 8.90369 109.471 9.32093 110.878 9.32093H112.792C114.608 9.32093 115.926 9.65635 116.744 10.3272C117.562 10.9981 117.971 12.0207 117.971 13.3951V14.4505C117.971 16.3485 117.292 17.633 115.934 18.3038C115.279 18.6474 114.551 18.8847 113.749 19.0156C112.964 19.1628 112.015 19.2365 110.902 19.2365Z" fill="#49FFC8"/>
<path d="M126.425 19.2365C125.819 19.2365 125.312 19.2119 124.903 19.1628C124.494 19.1137 124.085 19.0156 123.676 18.8683C123.218 18.721 122.841 18.5165 122.547 18.2547C122.269 17.9929 122.04 17.633 121.86 17.1748C121.663 16.7003 121.565 16.1522 121.565 15.5304V9.32093H119.16V7.11202H121.565V3.67594H125.148V7.11202H128.413V9.32093H125.148V14.9168C125.148 15.4895 125.198 15.9231 125.296 16.2176C125.394 16.4958 125.582 16.7003 125.86 16.8312C126.138 16.9457 126.564 17.003 127.136 17.003C127.366 17.003 127.791 16.9621 128.413 16.8803V19.1137C127.644 19.1956 126.981 19.2365 126.425 19.2365Z" fill="#49FFC8"/>
<path d="M130.48 7.11202H133.891V9.19821C133.891 8.82188 134.047 8.45373 134.358 8.09376C134.669 7.73379 135.061 7.43927 135.536 7.21019C136.027 6.98112 136.509 6.86659 136.984 6.86659H138.26V9.83634H137.033C136.019 9.83634 135.266 9.99178 134.775 10.3027C134.3 10.6135 134.063 11.129 134.063 11.8489V18.991H130.48V7.11202Z" fill="#49FFC8"/>
<path d="M146.199 19.2365C141.994 19.2365 139.891 17.952 139.891 15.3831V11.1126C139.891 9.62363 140.366 8.54372 141.315 7.87287C142.28 7.20201 143.761 6.86659 145.757 6.86659C147.639 6.86659 149.013 7.19383 149.881 7.84832C150.764 8.48645 151.206 9.57454 151.206 11.1126V14.0087H143.499V15.0886C143.499 15.7758 143.745 16.2667 144.236 16.5612C144.726 16.8557 145.61 17.003 146.886 17.003C148.064 17.003 149.39 16.8312 150.862 16.4876V18.7701C149.406 19.081 147.852 19.2365 146.199 19.2365ZM147.794 11.9716V10.2536C147.794 9.86088 147.631 9.56636 147.303 9.37001C146.993 9.17367 146.461 9.07549 145.708 9.07549C144.841 9.07549 144.26 9.17367 143.966 9.37001C143.655 9.58272 143.499 9.87724 143.499 10.2536V11.9716H147.794Z" fill="#49FFC8"/>
<path d="M157.307 19.2365C156.195 19.2365 155.36 19.1383 154.804 18.9419C154.264 18.7292 153.879 18.3611 153.65 17.8375C153.438 17.2975 153.331 16.4958 153.331 15.4322C153.331 14.4832 153.446 13.7387 153.675 13.1988C153.92 12.6588 154.305 12.2743 154.828 12.0452C155.368 11.7998 156.105 11.6771 157.037 11.6771H161.062V10.8672C161.062 10.3599 160.989 9.9836 160.841 9.73816C160.711 9.49273 160.457 9.32093 160.081 9.22275C159.721 9.12458 159.172 9.07549 158.436 9.07549C157.422 9.07549 156.031 9.17367 154.264 9.37001V7.11202C155.556 6.9484 157.07 6.86659 158.804 6.86659C160.326 6.86659 161.496 6.98112 162.314 7.21019C163.149 7.43927 163.746 7.83196 164.106 8.38828C164.466 8.94459 164.646 9.75453 164.646 10.8181V18.991H161.136V17.9111C160.858 18.3856 160.481 18.721 160.007 18.9174C159.532 19.1301 158.633 19.2365 157.307 19.2365ZM158.706 17.003C159.426 17.003 159.942 16.9785 160.252 16.9294C160.481 16.8967 160.637 16.8476 160.719 16.7821C160.817 16.7167 160.899 16.6103 160.964 16.4631C161.03 16.3485 161.062 16.1767 161.062 15.9476V13.6406H158.608C158.052 13.6406 157.659 13.6815 157.43 13.7633C157.201 13.8287 157.045 13.976 156.964 14.2051C156.882 14.4178 156.841 14.8023 156.841 15.3586C156.841 15.8986 156.882 16.2749 156.964 16.4876C157.045 16.7003 157.201 16.8394 157.43 16.9048C157.675 16.9703 158.101 17.003 158.706 17.003Z" fill="#49FFC8"/>
<path d="M167.798 7.11202H171.382V8.56008C171.611 7.43108 172.781 6.86659 174.891 6.86659C176.004 6.86659 176.847 7.01385 177.419 7.30837C177.992 7.58653 178.377 8.02831 178.573 8.63371C178.769 8.01194 179.146 7.56198 179.702 7.28382C180.275 7.00567 181.134 6.86659 182.279 6.86659C183.31 6.86659 184.103 6.9893 184.66 7.23474C185.216 7.46381 185.6 7.82378 185.813 8.31465C186.042 8.80551 186.157 9.46001 186.157 10.2781V18.991H182.573V10.769C182.573 10.2454 182.541 9.87724 182.475 9.66453C182.41 9.43546 182.263 9.28002 182.034 9.19821C181.821 9.1164 181.444 9.07549 180.905 9.07549C180.234 9.07549 179.751 9.1164 179.456 9.19821C179.178 9.28002 178.99 9.43546 178.892 9.66453C178.81 9.87724 178.769 10.2454 178.769 10.769V18.991H175.186V10.769C175.186 10.2454 175.153 9.87724 175.088 9.66453C175.022 9.43546 174.875 9.28002 174.646 9.19821C174.433 9.1164 174.057 9.07549 173.517 9.07549C172.846 9.07549 172.363 9.1164 172.069 9.19821C171.791 9.28002 171.603 9.43546 171.504 9.66453C171.423 9.87724 171.382 10.2454 171.382 10.769V18.991H167.798V7.11202Z" fill="#49FFC8"/>
</svg>
