<svg width="33" height="32" viewBox="0 0 33 32" fill="none" xmlns="http://www.w3.org/2000/svg">
<path d="M6.3625 7.1625C6.06875 7.23125 6.25625 7.21875 6.0125 7.25C4.96875 7.475 5.74375 7.675 6.3625 7.1625ZM24.7188 7.58125C24.7938 7.53125 25.0562 7.275 24.2375 7.025C24.2875 7.28125 24.0688 7.25625 24.0688 7.4C24.675 7.95 24.925 8.90625 25.7 9.10625C25.85 8.41875 25.0125 8.08125 24.7188 7.58125ZM5.80625 6.9625C5.9 7.51875 6.31875 6.375 6.325 5.96875C6.1625 6.0625 6 6.15625 5.83125 6.23125C6.225 6.43125 5.88125 6.64375 5.45625 6.9625C4.59375 8.0375 6.2625 6.125 5.80625 6.9625ZM16.5 0C7.6625 0 0.5 7.1625 0.5 16C0.5 24.8312 7.6625 32 16.5 32C25.3375 32 32.5 24.8312 32.5 16C32.5 7.1625 25.3375 0 16.5 0ZM16.925 5.3625L17 5.3875C16.7 5.775 18.5625 6.90625 17.225 7C15.975 7.35625 17.75 6.675 16.7812 6.79375C17.2938 6.08125 16.375 6.06875 16.925 5.3625ZM9.3375 6.3875C8.8875 6.0125 7.475 6.9 7.96875 6.6875C9.19375 6.20625 8.05 6.7375 8.3375 7.3125C8.075 7.85625 8.25 6.775 7.6 7.41875C7.13125 7.525 5.98125 8.5875 6.125 8.2625C6.0875 8.76875 4.75625 9.36875 4.575 10.2125C4.1375 11.3812 4.46875 10.1687 4.3875 9.7125C3.7625 8.91875 2.625 11.0562 2.9625 11.9C3.53125 10.9 3.4875 11.7937 3.075 12.2375C3.49375 13.0063 2.69375 14.0062 3.4875 14.575C3.8375 14.6562 4.5375 13.4 4.23125 14.7063C4.44375 13.575 4.81875 14.975 5.425 14.6625C5.4625 15.2563 5.83125 14.9812 5.9125 15.7C6.925 15.625 7.85 17.3375 6.64375 17.6625C6.825 17.6125 7.18125 17.9312 7.59375 17.6875C8.29375 18.2437 10.1375 18.3125 10.1875 19.6875C8.91875 20.2938 9.875 21.9562 8.775 22.55C7.5125 22.3625 8.34375 24.1063 7.8125 23.9062C8.025 25.1625 6.5375 23.7437 7.1125 24.4375C8.16875 25.0875 6.65 24.9562 7.125 25.4312C6.59375 25.3188 7.45625 26.4188 7.6 26.825C8.3625 28.0625 6.94375 26.55 6.525 26.1375C6.125 25.3375 5.18125 23.8062 4.91875 22.55C4.76875 20.725 3.35625 19.5 3.03125 17.7188C2.70625 16.725 3.925 15.1312 3.26875 14.575C2.7 14.1312 2.93125 12.6125 2.59375 11.8125C3.4375 8.15625 6.11875 5.075 9.3375 3.25C9.00625 3.49375 11.2313 2.61875 10.975 2.83125C10.9062 2.9875 12.275 2.2375 13.1 2.125C13.0125 2.1375 10.9562 2.875 11.525 2.775C10.6437 3.20625 11.4375 2.9625 11.875 2.74375C11 3.3875 10.325 3.20625 9.33125 3.775C8.33125 4.0375 8.5375 5.075 7.825 5.59375C8.24375 5.66875 9.29375 4.5125 9.90625 4.10625C11.3125 3.425 9.19375 5.34375 10.5312 4.51875C10.0813 4.9375 10.175 5.60625 9.9 5.79375C9.7625 5.75625 10.4437 6.11875 9.3375 6.3875ZM11.525 3.5125C11.3812 3.70625 11.1812 4.125 11.0625 3.86875C10.9 3.95 10.8375 4.3 10.5312 4.01875C10.7125 3.8875 10.9 3.575 10.5437 3.76875C10.7063 3.59375 12.1562 3.1 12.075 2.9125C12.3313 2.75 12.3062 2.66875 12.0125 2.76875C11.8625 2.71875 12.3687 2.29375 13.0437 2.2375C13.1375 2.2375 13.175 2.3 13.0063 2.28125C11.9875 2.59375 12.425 2.50625 13.1125 2.28125C12.85 2.43125 12.6687 2.475 12.625 2.54375C13.3125 2.29375 12.5875 2.725 12.7437 2.69375C12.55 2.79375 12.775 2.825 12.4 2.96875C12.4688 2.9125 11.7875 3.375 12.1938 3.2375C11.8 3.6125 11.625 3.61875 11.525 3.5125ZM12.125 4.40625C12.1375 3.80625 13 3.425 12.8938 3.39375C13.9563 2.89375 12.525 3.4125 13.3625 2.9625C13.675 2.93125 14.3375 1.93125 15.2563 1.86875C16.2688 1.5625 15.8 1.8875 16.55 1.6L16.4 1.725C16.2687 1.74375 16.4313 1.975 15.9563 2.325C15.9062 2.86875 15.05 2.61875 15.475 3.2C15.2 2.80625 14.7875 3.1875 15.3062 3.225C14.75 3.65 13.4562 3.725 12.8375 4.43125C12.4375 5.00625 12.0688 4.825 12.125 4.40625ZM16.5688 6.40625C16.1438 7.43125 15.7312 6.25625 16.4812 6.06875C16.6688 6.16875 16.7437 6.2 16.5688 6.40625ZM14.9688 4.35625C14.8438 3.89375 14.9438 4.1375 15.6875 3.91875C16.2 4.2875 15.2312 4.53125 14.9688 4.35625ZM26.6063 22.7C26.0188 21.6875 27.3188 20.75 27.7563 19.9C27.7 20.8937 27.575 21.875 26.6063 22.7ZM28.8188 11.1313C28.1812 11.1813 27.6063 11.3313 27.0312 10.9688C25.7062 9.51875 27.275 12.6062 27.7125 11.3438C29.2875 11.9438 27.6875 14.5312 26.6938 14.2625C26.1375 13.0625 25.45 11.7437 24.2375 11.1562C25.1687 12.1875 25.6313 13.4563 26.6313 14.3875C26.7 15.6875 28.0187 13.9125 27.9375 14.9187C28.0625 16.65 25.9813 17.6875 26.3438 19.425C27.1187 21.0062 24.85 21.2937 25.1063 22.7125C24.1938 23.7312 23.2188 25.1063 21.5812 24.8875C21.5812 24.025 21.1438 23.2938 21.0438 22.4062C20.1562 21.2812 21.9813 20.075 20.85 18.9C19.5438 18.6062 21.1187 16.8062 19.775 16.975C18.9688 16.1688 17.7875 16.95 16.6313 16.9562C15.1813 17.0938 13.6875 15.175 14.3313 13.8188C13.8188 12.4062 15.9563 11.9937 16.0125 10.75C17.0375 9.89375 18.4937 10 19.8813 9.8C19.7812 10.7937 20.8312 10.8 21.625 11.1313C22.0688 10.0563 23.45 11.3062 24.3937 10.625C24.7188 9.0375 23.475 9.99375 22.7625 9.4875C21.9 8.225 24.6063 8.8375 24.325 8.175C23.275 8.16875 23.8687 6.88125 23.125 7.6C23.7938 7.71875 23.0063 8.24375 23.025 7.64375C22.0125 7.35 22.9875 8.79375 22.475 8.93125C21.6938 8.60625 22.0625 9.3 22.1437 9.40625C21.8062 10.1375 21.3937 8.33125 20.4375 8.38125C19.4875 7.5125 20.0625 8.775 20.8875 8.98125C20.7125 9.03125 20.9875 9.75 20.7687 9.44375C20.0875 8.50625 18.7937 7.88125 18.025 9.03125C17.9438 10.1062 15.7562 10.4125 16.1062 9.15625C15.5938 7.85625 17.6938 9.11875 17.5 8.08125C16.15 7.1875 17.8688 7.475 18.325 6.6375C19.3625 6.66875 18.3688 5.7875 18.8563 5.53125C18.8063 6.4875 19.65 6.30625 20.3188 6.125C20.1562 5.575 20.7188 5.59375 20.375 5.1375C21.925 4.51875 19.1938 5.425 19.7437 4.06875C19.075 3.60625 19.4625 5.0875 19.7437 5.24375C19.7625 5.7 19.375 6.2625 18.8438 5.30625C18.0688 5.8125 18.15 4.79375 18.1 4.9C18.0125 4.50625 18.6875 4.4875 18.6938 3.8C18.6375 3.3625 18.65 3.13125 18.9625 3.10625C18.9875 3.16875 20.2437 3.1875 20.6875 3.70625C19.475 3.4625 20.5062 3.90625 21.05 4.15625C20.4688 3.7 21.2812 4.15625 20.8062 3.6375C20.9937 3.675 20.2875 2.925 21.0125 3.58125C20.6188 3.1125 21.7812 3.25 21.0938 2.9C22.1 3.18125 21.5063 2.925 20.9125 2.66875C19.275 1.69375 23.8062 3.9875 21.9562 2.96875C23.1375 3.225 19.4312 2.05625 21.1187 2.56875C20.475 2.2875 21.1 2.44375 21.6812 2.625C20.6375 2.3 19.075 1.69375 19.1375 1.66875C19.5 1.69375 19.8563 1.775 20.2 1.875C21.2688 2.19375 19.8937 1.8 20.1875 1.80625C23.8625 2.75 27.0813 5.2125 29.0375 8.43125C29.4937 8.9125 30.7375 12.0938 30.0875 10.6812C30.3813 11.8062 30.425 13.0188 30.5812 14.1687C30.2562 13.8062 29.8937 12.4688 29.5812 11.725C29.45 12.0125 29.3 11.3188 28.8188 11.1313Z" fill="#49FFC8"/>
</svg>
